<svg width="0" height="0" class="hidden">
    <symbol viewBox="0 0 512 512" fill="currentColor" xmlns="http://www.w3.org/2000/svg" id="dead">
        <path class=""
              d="M510.061 240.119c-.432-28.452-4.832-57.22-15.56-83.685-9.915-24.46-23.552-46.733-41.181-66.434-16.35-18.272-36.166-33.854-57.802-45.392-21.832-11.642-45.453-20.312-69.372-26.542C301.54 11.658 275.948 7.584 250.5 7.093c-12.121-.234-24.08.684-36.072 2.415-3.792.547-7.979 4.232-10.087 7.446-13.826 1.904-27.476 5.172-40.559 9.821-22.331 7.934-43.346 19.15-62.144 33.59-9.916 7.617-19.387 15.672-28.123 24.63-8.665 8.885-16.537 18.477-23.927 28.44-14.73 19.861-26.466 41.937-34.617 65.288-8.62 24.691-12.762 51.162-13.051 77.282-.291 26.337 3.444 53.006 10.698 78.319 7.297 25.464 18.224 50.236 32.491 72.57 7.539 11.8 16.112 23.177 25.954 33.159 9.989 10.132 21.591 18.19 33.518 25.847 11.626 7.464 23.558 14.547 36.271 20.014 7.365 3.167 14.786 6.115 22.56 8.125 6.997 1.809 14.13 3.181 21.251 4.402 29.951 5.137 60.328 6.836 90.684 6.455 27.949-.351 55.985-1.888 83.08-9.284 26.878-7.336 51.983-19.805 73.476-37.565 19.383-16.017 34.817-37.058 45.905-59.537 11.384-23.08 19.115-47.762 24.031-72.984 5.453-27.986 8.655-56.875 8.222-85.407zm-38.488 55.108c-3.628 25.852-9.554 51.497-19.433 75.708-6.083 14.008-13.56 27.38-22.735 39.601-7.202 8.997-15.315 17.192-24.31 24.4-10.415 7.776-21.738 14.209-33.649 19.406-15.647 6.31-32.05 10.529-48.731 13.004-14.414 1.797-28.964 2.232-43.476 2.492-16.368.293-32.755.052-49.093-1.037a429.168 429.168 0 0 1-26.519-2.588c-15.823-2.229-31.667-5.231-46.539-11.156-8.913-3.944-17.465-8.642-25.791-13.706-8.073-4.91-16.229-9.928-23.838-15.562-8.622-6.913-16.269-14.91-23.132-23.563-11.357-15.144-20.668-31.845-28.195-49.2a266.101 266.101 0 0 1-17.26-63.05c-2.496-20.206-2.625-40.659-.137-60.87 2.584-17.614 7.18-34.881 13.895-51.372 7.454-17.081 17.093-33.221 28.293-48.109 11.695-14.911 25.071-28.45 39.944-40.198 13.481-10.164 28.061-18.797 43.536-25.556 14.782-6.013 30.216-10.266 46.012-12.564a196.27 196.27 0 0 1 24.335-1.33c5.761.043 11.363-3.177 14.624-7.911 9.903.143 19.804.929 29.615 2.156 27.588 3.903 54.814 11.196 80.57 21.839 15.421 6.701 30.127 14.807 43.615 24.869 12.401 9.786 23.594 21.006 33.404 33.386a204.328 204.328 0 0 1 23.969 40.999c6.143 15.142 10.292 30.927 12.648 47.094 3.331 27.504 1.918 55.391-1.622 82.818z"/>
        <path class=""
              d="M146.97 191.183a312.956 312.956 0 0 1 23.468 12.013c-.776.665-1.542 1.341-2.323 2a403.213 403.213 0 0 1-11.592 9.399 416.738 416.738 0 0 1-7.05 5.297c-2.039 1.1-3.676 2.602-4.91 4.507-1.547 1.69-2.591 3.674-3.132 5.951-.729 2.326-.833 4.652-.313 6.978.106 2.329.798 4.498 2.077 6.506 2.409 3.737 5.996 7.026 10.458 8.042 4.319.984 9.75.967 13.485-1.764 11.694-8.551 22.988-17.625 33.799-27.244a320.44 320.44 0 0 1 4.784 3.588 314.824 314.824 0 0 1 21.473 18.445c3.33 3.136 7.748 5.126 12.375 5.126 4.292 0 9.419-1.906 12.374-5.126 3.062-3.335 5.334-7.714 5.126-12.374-.204-4.561-1.714-9.161-5.126-12.374a337.976 337.976 0 0 0-25.7-21.879c3.458-3.676 6.869-7.396 10.188-11.198 1.707-1.585 2.913-3.462 3.618-5.632 1.096-2.086 1.598-4.333 1.507-6.742 0-4.292-1.906-9.419-5.125-12.374-3.335-3.062-7.714-5.334-12.375-5.126-4.457.2-9.335 1.645-12.374 5.126a405.05 405.05 0 0 1-14.648 15.883 316.445 316.445 0 0 0-12.478-7.232 313.405 313.405 0 0 0-19.922-10.019c-2.009-1.279-4.177-1.971-6.507-2.077-2.326-.521-4.652-.417-6.978.313-4.059 1.118-8.458 4.256-10.458 8.042-2.146 4.061-3.221 8.982-1.764 13.485 1.325 4.092 3.974 8.59 8.043 10.46zM389.399 219.601a337.976 337.976 0 0 0-25.7-21.879c3.458-3.676 6.869-7.396 10.188-11.198 1.707-1.585 2.913-3.462 3.619-5.632 1.096-2.086 1.598-4.333 1.507-6.742 0-4.292-1.906-9.419-5.126-12.374-3.335-3.062-7.714-5.334-12.374-5.126-4.457.2-9.335 1.645-12.374 5.126a405.05 405.05 0 0 1-14.648 15.883 316.445 316.445 0 0 0-12.478-7.232 313.405 313.405 0 0 0-19.922-10.019c-2.009-1.279-4.178-1.971-6.506-2.077-2.326-.521-4.652-.417-6.978.313-4.059 1.118-8.458 4.256-10.458 8.042-2.146 4.061-3.222 8.982-1.764 13.485 1.324 4.091 3.972 8.589 8.042 10.459a312.956 312.956 0 0 1 23.468 12.013c-.776.665-1.542 1.341-2.323 2a405.074 405.074 0 0 1-11.594 9.401 416.473 416.473 0 0 1-7.048 5.295c-2.039 1.1-3.676 2.602-4.91 4.507-1.547 1.69-2.591 3.674-3.132 5.951-.729 2.326-.833 4.652-.313 6.978.106 2.329.798 4.498 2.077 6.506 2.409 3.737 5.996 7.026 10.459 8.042 4.319.984 9.75.967 13.485-1.764 11.694-8.551 22.988-17.625 33.8-27.244a320.44 320.44 0 0 1 4.784 3.588 314.543 314.543 0 0 1 21.473 18.445c3.329 3.136 7.748 5.126 12.374 5.126 4.292 0 9.419-1.906 12.375-5.126 3.062-3.335 5.334-7.714 5.125-12.374-.207-4.56-1.717-9.16-5.128-12.373zM375.024 346.804a17.481 17.481 0 0 0-4.5-7.722c-10.236-11.37-21.815-21.764-34.776-29.95-7.014-4.43-14.581-7.962-22.368-10.809-8.486-3.102-17.379-4.541-26.34-5.478-8.056-.843-16.171-.859-24.261-.687-8.093.171-16.193.413-24.273.93-9.458.605-18.922 1.658-28.252 3.327-7.328 1.311-14.57 3.147-21.552 5.743-7.66 2.849-15.232 6.204-22.138 10.606-3.993 2.545-7.786 5.449-11.43 8.464a70.146 70.146 0 0 0-7.322 6.986 67.748 67.748 0 0 0-3.2 3.818c-1.707 1.585-2.913 3.462-3.618 5.632-1.096 2.086-1.598 4.333-1.507 6.742 0 4.292 1.906 9.419 5.126 12.374 3.335 3.062 7.714 5.334 12.374 5.126l4.652-.625a17.486 17.486 0 0 0 7.722-4.5c3.26-4.18 7.02-7.913 11.125-11.254 4.722-3.381 9.791-6.24 15.077-8.647 9.205-3.665 18.856-5.984 28.644-7.461 8.065-.99 16.177-1.517 24.294-1.834 8.881-.347 17.791-.661 26.678-.456 4.314.1 8.621.366 12.908.849 6.091.991 12.038 2.568 17.796 4.797 6.966 3.16 13.508 7.16 19.648 11.719 7.295 5.844 13.993 12.392 20.245 19.337 1.585 1.707 3.462 2.913 5.632 3.618 2.086 1.096 4.333 1.598 6.742 1.507 4.292 0 9.419-1.906 12.374-5.126 3.062-3.335 5.334-7.714 5.126-12.374-.21-1.55-.418-3.101-.626-4.652z"/>
    </symbol>
    <symbol viewBox="0 0 512 512" fill="currentColor" xmlns="http://www.w3.org/2000/svg" id="alive">
        <path d="M510.061 240.119c-.432-28.452-4.832-57.22-15.56-83.685-9.915-24.46-23.552-46.733-41.181-66.434-16.35-18.272-36.166-33.854-57.802-45.392-21.832-11.642-45.453-20.312-69.372-26.542-24.607-6.409-50.198-10.483-75.647-10.974-12.121-.234-24.08.684-36.072 2.415-3.792.547-7.979 4.232-10.087 7.446-13.826 1.904-27.476 5.172-40.559 9.821-22.331 7.934-43.346 19.15-62.144 33.59-9.916 7.617-19.387 15.672-28.123 24.63-8.664 8.885-16.537 18.477-23.926 28.44-14.73 19.861-26.466 41.937-34.617 65.288-8.62 24.691-12.762 51.162-13.051 77.282-.291 26.337 3.444 53.007 10.698 78.319 7.297 25.464 18.224 50.236 32.491 72.57 7.539 11.8 16.112 23.177 25.954 33.159 9.989 10.132 21.591 18.19 33.518 25.847 11.626 7.464 23.557 14.547 36.27 20.014 7.365 3.167 14.786 6.115 22.56 8.125 6.997 1.809 14.13 3.181 21.251 4.402 29.951 5.137 60.328 6.836 90.684 6.455 27.949-.351 55.985-1.888 83.08-9.284 26.878-7.336 51.983-19.805 73.476-37.565 19.383-16.017 34.817-37.058 45.905-59.537 11.384-23.08 19.115-47.762 24.031-72.984 5.454-27.985 8.656-56.874 8.223-85.406zm-38.488 55.108c-3.628 25.852-9.554 51.498-19.433 75.708-6.083 14.008-13.56 27.381-22.735 39.601-7.202 8.997-15.315 17.192-24.31 24.4-10.415 7.776-21.736 14.208-33.646 19.404-15.647 6.31-32.051 10.53-48.732 13.004-14.414 1.797-28.964 2.232-43.476 2.492-16.368.293-32.755.052-49.093-1.037a429.168 429.168 0 0 1-26.519-2.588c-15.823-2.229-31.666-5.231-46.538-11.156-8.913-3.944-17.466-8.642-25.791-13.706-8.072-4.91-16.228-9.928-23.837-15.561-8.622-6.914-16.27-14.911-23.133-23.565-11.357-15.144-20.667-31.845-28.195-49.2a266.101 266.101 0 0 1-17.26-63.05c-2.496-20.206-2.625-40.659-.137-60.87 2.584-17.614 7.18-34.881 13.895-51.372 7.454-17.081 17.093-33.221 28.293-48.109 11.696-14.912 25.071-28.45 39.945-40.198 13.481-10.164 28.06-18.796 43.535-25.556 14.782-6.013 30.216-10.266 46.012-12.564a196.27 196.27 0 0 1 24.335-1.33c5.761.043 11.363-3.177 14.624-7.911 9.903.143 19.804.929 29.615 2.156 27.588 3.903 54.814 11.196 80.569 21.839 15.421 6.701 30.127 14.807 43.616 24.869 12.401 9.786 23.594 21.006 33.404 33.386a204.328 204.328 0 0 1 23.969 40.999c6.143 15.142 10.292 30.927 12.648 47.094 3.328 27.507 1.915 55.394-1.625 82.821z"/>
        <path d="M161.367 218.431c1.188 4.235 3.331 7.912 6.429 11.032 4.891 4.49 10.904 7.322 17.678 7.322 3.442.13 6.653-.588 9.632-2.153 3.099-1.008 5.781-2.731 8.046-5.169 2.438-2.264 4.161-4.946 5.169-8.046 1.565-2.979 2.283-6.19 2.153-9.632l-.893-6.646c-1.188-4.235-3.331-7.912-6.429-11.032-4.891-4.49-10.904-7.322-17.678-7.322-3.442-.13-6.653.588-9.632 2.153-3.099 1.008-5.781 2.731-8.046 5.169-2.438 2.264-4.161 4.946-5.169 8.046-1.565 2.979-2.283 6.19-2.153 9.632l.893 6.646zM311.034 218.431c1.188 4.235 3.331 7.912 6.429 11.032 4.891 4.49 10.904 7.322 17.678 7.322 3.442.13 6.653-.588 9.632-2.153 3.099-1.008 5.781-2.731 8.046-5.169 2.438-2.264 4.161-4.946 5.169-8.046 1.565-2.979 2.283-6.19 2.153-9.632l-.893-6.646c-1.188-4.235-3.331-7.912-6.429-11.032-4.891-4.49-10.904-7.322-17.678-7.322-3.442-.13-6.653.588-9.632 2.153-3.099 1.008-5.781 2.731-8.046 5.169-2.438 2.264-4.161 4.946-5.169 8.046-1.565 2.979-2.283 6.19-2.153 9.632l.893 6.646zM425.375 259.985c-3.035-3.035-8.015-5.321-12.374-5.126-4.526.203-9.22 1.689-12.374 5.126-3.192 3.477-4.995 7.591-5.126 12.374-.083 3.019-.293 6.03-.619 9.031-1.353 8.712-3.725 17.226-6.985 25.417-4.002 8.997-9.033 17.494-14.91 25.392a144.81 144.81 0 0 1-22.649 22.628c-8.773 6.541-18.241 12.022-28.244 16.452-12.79 5.175-26.186 8.673-39.835 10.66-16.599 1.951-33.393 1.726-49.975-.32-16.117-2.338-32.261-6.185-47.392-12.259-7.014-3.11-13.711-6.849-19.901-11.384-5.488-4.473-10.475-9.515-14.935-15.013-4.929-6.669-9.091-13.866-12.477-21.435a122.156 122.156 0 0 1-7.208-26.312c-.598-5.242-.878-10.513-.783-15.791.079-4.436-2.008-9.257-5.126-12.374-3.035-3.035-8.015-5.321-12.374-5.126-4.526.203-9.22 1.689-12.374 5.126-3.175 3.459-5.04 7.604-5.126 12.374-.15 8.362.711 16.629 1.981 24.888a121.077 121.077 0 0 0 4.762 19.754c2.554 7.687 5.753 15.246 9.554 22.402 3.876 7.298 8.618 13.948 13.743 20.418 9.332 11.78 21.383 21.758 34.628 28.844 15.558 8.324 32.773 13.642 49.998 17.221 33.432 6.945 68.415 7.509 101.61-1.109 30.345-7.878 58.679-23.87 80.056-46.94 10.024-10.818 18.865-23.07 25.326-36.353 3.491-7.178 6.565-14.649 8.872-22.298 2.379-7.888 3.732-15.948 4.687-24.122.379-3.245.605-6.505.694-9.771.122-4.408-2.036-9.285-5.124-12.374z"/>
    </symbol>
    <symbol viewBox="0 0 512 512" fill="currentColor" xmlns="http://www.w3.org/2000/svg" id="unknown">
        <path d="M510.061 240.119c-.432-28.452-4.832-57.22-15.56-83.685-9.915-24.46-23.552-46.733-41.181-66.434-16.35-18.272-36.166-33.854-57.802-45.392-21.832-11.642-45.453-20.312-69.372-26.541-24.607-6.409-50.198-10.483-75.647-10.974-12.121-.234-24.08.684-36.072 2.415-3.792.547-7.979 4.232-10.087 7.446-13.826 1.904-27.476 5.172-40.559 9.821-22.331 7.934-43.346 19.15-62.144 33.59-9.916 7.617-19.387 15.672-28.123 24.63-8.664 8.885-16.537 18.477-23.926 28.44-14.73 19.861-26.466 41.937-34.617 65.288-8.62 24.691-12.762 51.162-13.051 77.282-.291 26.337 3.444 53.006 10.698 78.319 7.297 25.464 18.224 50.236 32.491 72.57 7.539 11.8 16.112 23.177 25.954 33.159 9.989 10.132 21.591 18.19 33.518 25.847 11.626 7.464 23.557 14.547 36.27 20.014 7.365 3.167 14.786 6.115 22.56 8.125 6.997 1.809 14.13 3.181 21.251 4.402 29.951 5.137 60.328 6.836 90.684 6.455 27.949-.351 55.985-1.888 83.08-9.284 26.878-7.336 51.983-19.805 73.476-37.565 19.383-16.017 34.817-37.058 45.905-59.537 11.384-23.08 19.115-47.762 24.031-72.984 5.454-27.986 8.656-56.875 8.223-85.407zm-38.488 55.108c-3.628 25.852-9.554 51.497-19.433 75.708-6.083 14.008-13.56 27.38-22.734 39.601-7.202 8.997-15.315 17.192-24.31 24.4-10.415 7.776-21.738 14.209-33.649 19.406-15.647 6.31-32.05 10.529-48.731 13.004-14.414 1.797-28.964 2.232-43.476 2.492-16.368.293-32.755.052-49.093-1.037a429.168 429.168 0 0 1-26.519-2.588c-15.823-2.229-31.666-5.231-46.538-11.156-8.913-3.944-17.466-8.642-25.791-13.706-8.073-4.91-16.229-9.928-23.838-15.562-8.622-6.913-16.269-14.91-23.132-23.563-11.357-15.144-20.668-31.845-28.195-49.2a266.096 266.096 0 0 1-17.26-63.051c-2.496-20.206-2.625-40.659-.137-60.87 2.584-17.613 7.18-34.88 13.895-51.371 7.454-17.081 17.093-33.222 28.293-48.11 11.696-14.912 25.072-28.451 39.946-40.199 13.481-10.163 28.06-18.795 43.534-25.555 14.782-6.013 30.216-10.266 46.012-12.564a196.27 196.27 0 0 1 24.335-1.33c5.761.043 11.363-3.177 14.623-7.911 9.903.143 19.804.929 29.615 2.156 27.588 3.903 54.814 11.196 80.569 21.839 15.421 6.701 30.127 14.807 43.616 24.869 12.401 9.786 23.594 21.006 33.404 33.386a204.28 204.28 0 0 1 23.969 40.999c6.143 15.142 10.292 30.927 12.648 47.093 3.33 27.506 1.917 55.393-1.623 82.82z"/>
        <path d="M209.581 205.139c-1.188-4.235-3.331-7.912-6.429-11.032-4.891-4.49-10.904-7.322-17.678-7.322-3.442-.13-6.653.588-9.632 2.153-3.099 1.008-5.781 2.731-8.046 5.169-2.438 2.264-4.161 4.946-5.169 8.046-1.565 2.979-2.283 6.19-2.153 9.632l.893 6.646c1.188 4.235 3.331 7.912 6.429 11.032 4.891 4.49 10.904 7.322 17.678 7.322 3.442.13 6.653-.588 9.632-2.153 3.099-1.008 5.781-2.731 8.046-5.169 2.438-2.264 4.161-4.946 5.169-8.046 1.565-2.979 2.283-6.19 2.153-9.632l-.893-6.646zM359.248 205.139c-1.188-4.235-3.331-7.912-6.429-11.032-4.891-4.49-10.904-7.322-17.678-7.322-3.442-.13-6.653.588-9.632 2.153-3.099 1.008-5.781 2.731-8.046 5.169-2.438 2.264-4.161 4.946-5.169 8.046-1.565 2.979-2.283 6.19-2.153 9.632l.893 6.646c1.188 4.235 3.331 7.912 6.429 11.032 4.891 4.49 10.904 7.322 17.678 7.322 3.442.13 6.653-.588 9.632-2.153 3.099-1.008 5.781-2.731 8.046-5.169 2.438-2.264 4.161-4.946 5.169-8.046 1.565-2.979 2.283-6.19 2.153-9.632l-.893-6.646z"/>
    </symbol>
    <symbol viewBox="0 0 490 490" fill="currentColor" xmlns="http://www.w3.org/2000/svg" id="origin">
        <path d="M438.499 264.355c-1.2-22.4-5.8-41-14.8-39.4-8.3 1.5-14.4 17.4-15.3 40.4-1.7 41.3-3.6 83-3.4 124.4l.5 50c.3 5.6-1.4 10.7-3.4 13.4-.5.6-.9 1.1-1.3 1.3-.2.2-.3.2-.3.3h-.1s-.1.1 0 0c.1 0 .3-.1.4-.1s.3 0 .4.1.4.2 0 .2l-1.6.1H399.299c.5-.1-1.1.2 1-.2H397.499l-6.3.1-50 1.1-12.5.3-3.1.1h-.9c-.6-.1-1.2-.2-1.7-.4-1.1-.5-2.1-1.4-2.7-2.6-.1-.3-.3-.6-.4-.9-.2-.6 0 .2-.2-.5l-.1-1.6v-.9l-.1-3.1c2.9-29.9 4.6-59.9 5.6-90.1l.6-22.6.1-5.7v-3.3c0-1.9-.2-3.8-.5-5.7-1.2-7.6-4.9-14.7-10.2-20.2-5.3-5.5-12.3-9.4-20-11-2.3-.5-5.4-.7-5.7-.7h-9.5l-22.7-.1-46 .1c-7.7.2-15.5 2.8-21.7 7.4-6.3 4.5-11.1 10.9-13.7 18.3-.7 1.8-1.1 3.7-1.6 5.6-.2 1.2-.4 2.4-.5 3.6l-.1.9v1.1l-.1 2.4v15.6c.1 30.3.1 60.6-.5 90.8-.1 5.4 3.4 13.8 5.8 16.5 4.9 5.3 9-1.6 12.1-11.8 5.2-16.9 8.9-35.6 11.4-55.2 1.3-9.8 2.3-19.9 3-30.2.4-5.1.7-10.3 1-15.4l.3-7.8.1-1.9v-1.1.7-.8l.1-1c0-.2.1 0 .1 0 0 .1 0 .1.1-.1.5-1.6 2-2.8 3.5-3.1-.7-.3 8.3.2 14 .3l37.6 1.2 18.8.6 4.7.1h1.6-.8.7l1.1.1c-.1 0-.3.1-.4.1-.4-.1-.1.1-.1.1.1.1.1.1.2.1l.3.3c.2.2.3.6.3.8v.3c0 .3-.1-.4-.1 1.8l-.4 18.8c-.5 25.1-.9 50.3-.9 75.5l.1 18.9.1 9.4v2.1l.1 1.2v.6l.1 1.3c.1 1 .3 1.9.4 2.9.7 3.3 1.6 6.2 3 9 5.3 11.4 16.7 19.5 29.1 20.9 1.5.2 3.1.2 4.6.3h2.5l4.7-.1 9.5-.3c12.5.4 25 .7 37.5 1.1l14.9.3 3.7.1h2.1l1.6-.1h1.4c.1 0 2.4-.2 4.1-.6.9-.2 1.8-.4 2.6-.6l2-.6c2.6-.9 4.9-2.1 7.2-3.4 8.6-5.4 13.7-12.7 17-19.7 3.3-7.1 4.9-14.4 5.2-21.7l.1-2.7v-5.6l.1-7.4.1-14.8v-29.7c.5-39.3-.4-78.8-2.4-118.2z"/>
        <path d="M476.599 241.355c6.6-.6 5-7.6.6-15.8-14.6-26.9-37.6-53.6-63.3-78.2-25-24-50.1-48-75.1-72.1-12.6-12-25.2-23.9-38-35.6l-19.4-17.5-9.7-8.7-4.9-4.3-2.4-2.2-1.9-1.6-1.3-1-.2-.2c-7.1-5.7-17.5-5.6-24.4.7-12.1 11-24.1 22.2-35.8 33.5-8.2 6.8-16.4 13.7-24.5 20.5-51.6 43.9-102.3 88.5-149.6 136.4-13.5 13.6-22.3 27.6-15.1 33.5 6.5 5.3 20.7.8 35.9-11.6 5.8-4.7 11.7-9.4 17.5-14.2-1.6 20.4-3 41-2.8 61.4.4 37 2.4 74 3.7 111-2.9 16.6-4.6 33.3-5.6 50l-.6 12.6-.2 6.3-.1 3.1v1.6l.1 2.8c.3 8.1 3.3 16.1 8.3 22.5 4.9 6.5 11.9 11.4 19.7 13.9 1 .3 2 .6 3 .8l1.5.4 1.9.3 1.9.2 1.5.1 1.6.1h7.4l12.6-.1 25.3-.2h32.4c4.2-.1 8.5-1 12.6-2.5 8.1-3.1 15-8.8 19.5-16.2 1.7-2.6 2.5-6.7 2.2-10.3-.1-.9-.2-1.7-.3-2.6-.1-1-.4-1.9-.6-2.7-.4-2-1.2-2.2-1.7-2.6-2.4-1.6-4.6-1.5-6.7-.3-1 .4-2.1 1.8-3.3 3.2-1.2 1.2-2.4 2.4-3.7 3.6-4.4 3.8-9.6 5.4-13.9 5.2-2.2-.1-4-.7-5.9-1.5-2.7-.8-5.4-1.5-8.1-2.1-10.9-2.6-22.4-4-34-4.6l-20.9-1.1-10.4-.6H100.399h.7-.3l-1.3-.1c-.6 0-.4-.1-.4-.1h.2c-.4-.2-.8-.4-1.1-.7-1.3-1-1.9-2.7-1.7-4 0-.2.1-.3.1-.5l.1-2.5.2-5.2.4-10.5c1.1-27.9 1.3-55.8-.3-83.9l1.1-20.8c1.7-44 2.2-87.9-1.9-131.7-.5-5.4-1.7-10.3-3.6-14.1 12.4-10.4 24.7-20.9 36.7-31.7 40.3-36.5 79.7-74.2 119.3-111.4l5 5.3 13.1 13.6c8.8 9 17.8 17.9 26.9 26.7 18.2 17.5 36.9 34.6 55.8 51.6 37.8 33.9 76.4 67 113.3 101.6 2.9 3.3 10.5 5.5 13.9 5.1z"/>
    </symbol>
    <symbol viewBox="0 0 490 490" fill="currentColor" xmlns="http://www.w3.org/2000/svg" id="location">
        <path d="M231.014 0c-6.553 0-13.385.218-19.994.635h-8.062c-2.184 0-4.326.467-6.378 1.404-50.528 1.008-93.724 28.579-112.916 72.158-18.829 42.747-9.796 91.305-1.366 124.111 19.377 75.426 63.452 156.46 122.164 225.632-7.582-.193-15.148-.391-22.635-.594-12.37-.33-24.74-.655-37.115-.95h-.574c-11.101 0-17.004 7.607-17.09 15.122-.094 7.79 5.86 15.813 17.417 16.077 12.362.29 24.717.62 37.077.95 35.289.934 71.779 1.904 107.717 1.904 10.328 0 20.657-.071 30.995-.254 11.548-.203 17.524-8.187 17.448-15.955-.065-7.576-5.992-15.244-17.626-15.244h-.01c-10.268.183-20.545.254-30.813.254-8.333 0-16.696-.062-25.074-.152 62.672-66.75 107.449-162.638 118.139-254.605 4.007-34.408 2.26-83.776-28.776-123.549C329.247 15.797 288.02 0 231.014 0zm118.002 180.507c-12.415 82.999-56.146 170.411-114.563 229.418-46.261-53.116-84.277-116.937-110.093-184.89-17.237-45.377-23.135-83.22-18.024-115.709 7-44.448 45.499-75.497 93.63-75.497.952 0 1.901.01 3.295.043 2.257 0 4.4-.454 6.38-1.353h5.408c1.023 0 2.069-.114 3.171-.348 4.281-.183 8.586-.281 12.89-.281 45.768 0 78.201 12.037 99.168 36.81 19.993 23.622 26.299 61.238 18.738 111.807z"/>
        <path d="M228.554 50.307c-.988 0-1.973.01-2.623.043-47.131-1.889-81.471 28.119-84.548 73.265-3.532 51.691 43.158 90.035 88.981 93.409 2.021.152 4.062.224 6.094.224h.005c45.209 0 88.215-35.03 93.917-76.5 2.858-20.804-2.777-40.001-16.306-55.518-18.494-21.215-52.064-34.923-85.52-34.923zm67.834 87.494c-3.818 27.767-36.886 44.958-65.612 44.958-33.405-.145-53.301-28.262-53.243-55.363.041-20.69 11.949-42.8 45.237-42.8.629 0 1.259.005 2.003.025.175.01.353.015.521.01a104.82 104.82 0 0 1 2.818-.041c18.533 0 45.238 5.802 59.501 22.161 7.475 8.569 10.42 19.022 8.775 31.05z"/>
    </symbol>
</svg>